<svg width="140" height="25" viewBox="0 0 56 10" fill="none" xmlns="http://www.w3.org/2000/svg">
<path d="M0.9 9.084C0.756 9.084 0.64 9.052 0.552 8.988C0.472 8.924 0.424 8.836 0.408 8.724C0.392 8.612 0.416 8.488 0.48 8.352L3.756 0.935999C3.828 0.768 3.92 0.648 4.032 0.576C4.144 0.496 4.268 0.456 4.404 0.456C4.54 0.456 4.66 0.496 4.764 0.576C4.876 0.648 4.972 0.768 5.052 0.935999L8.328 8.352C8.392 8.488 8.416 8.616 8.4 8.736C8.392 8.848 8.348 8.936 8.268 9C8.188 9.056 8.076 9.084 7.932 9.084C7.772 9.084 7.644 9.044 7.548 8.964C7.452 8.876 7.368 8.752 7.296 8.592L6.444 6.6L6.96 6.888H1.824L2.34 6.6L1.488 8.592C1.416 8.768 1.336 8.896 1.248 8.976C1.16 9.048 1.044 9.084 0.9 9.084ZM4.38 1.8L2.508 6.228L2.22 5.976H6.564L6.288 6.228L4.404 1.8H4.38ZM13.1342 9.108C12.5742 9.108 12.0782 9.036 11.6462 8.892C11.2222 8.74 10.8662 8.52 10.5782 8.232C10.2902 7.936 10.0702 7.572 9.91819 7.14C9.77419 6.7 9.70219 6.192 9.70219 5.616V1.02C9.70219 0.828 9.75019 0.688 9.84619 0.599999C9.94219 0.504 10.0782 0.456 10.2542 0.456C10.4382 0.456 10.5782 0.504 10.6742 0.599999C10.7702 0.688 10.8182 0.828 10.8182 1.02V5.58C10.8182 6.436 11.0142 7.076 11.4062 7.5C11.7982 7.916 12.3742 8.124 13.1342 8.124C13.8942 8.124 14.4702 7.916 14.8622 7.5C15.2542 7.076 15.4502 6.436 15.4502 5.58V1.02C15.4502 0.828 15.4982 0.688 15.5942 0.599999C15.6902 0.504 15.8262 0.456 16.0022 0.456C16.1782 0.456 16.3142 0.504 16.4102 0.599999C16.5062 0.688 16.5542 0.828 16.5542 1.02V5.616C16.5542 6.376 16.4222 7.016 16.1582 7.536C15.9022 8.056 15.5182 8.448 15.0062 8.712C14.5022 8.976 13.8782 9.108 13.1342 9.108ZM19.1395 9C18.9475 9 18.7995 8.948 18.6955 8.844C18.5915 8.74 18.5395 8.592 18.5395 8.4V1.14C18.5395 0.948 18.5915 0.8 18.6955 0.696C18.7995 0.592 18.9475 0.539999 19.1395 0.539999H21.4555C22.8395 0.539999 23.9035 0.904 24.6475 1.632C25.3995 2.352 25.7755 3.396 25.7755 4.764C25.7755 5.444 25.6795 6.048 25.4875 6.576C25.2955 7.104 25.0155 7.548 24.6475 7.908C24.2795 8.26 23.8275 8.532 23.2915 8.724C22.7635 8.908 22.1515 9 21.4555 9H19.1395ZM19.6555 8.052H21.3835C21.9275 8.052 22.3995 7.984 22.7995 7.848C23.1995 7.712 23.5315 7.508 23.7955 7.236C24.0675 6.964 24.2715 6.624 24.4075 6.216C24.5435 5.8 24.6115 5.316 24.6115 4.764C24.6115 3.668 24.3395 2.848 23.7955 2.304C23.2595 1.76 22.4555 1.488 21.3835 1.488H19.6555V8.052ZM28.0564 9.084C27.8804 9.084 27.7444 9.036 27.6484 8.94C27.5524 8.836 27.5044 8.692 27.5044 8.508V1.032C27.5044 0.84 27.5524 0.696 27.6484 0.599999C27.7444 0.504 27.8804 0.456 28.0564 0.456C28.2404 0.456 28.3804 0.504 28.4764 0.599999C28.5724 0.696 28.6204 0.84 28.6204 1.032V8.508C28.6204 8.692 28.5724 8.836 28.4764 8.94C28.3884 9.036 28.2484 9.084 28.0564 9.084ZM34.257 9.108C33.457 9.108 32.765 8.932 32.181 8.58C31.597 8.22 31.141 7.716 30.813 7.068C30.493 6.412 30.333 5.644 30.333 4.764C30.333 4.1 30.425 3.504 30.609 2.976C30.793 2.44 31.053 1.984 31.389 1.608C31.733 1.224 32.145 0.932 32.625 0.732C33.113 0.532 33.657 0.431999 34.257 0.431999C35.057 0.431999 35.749 0.608 36.333 0.96C36.917 1.312 37.369 1.812 37.689 2.46C38.009 3.108 38.169 3.872 38.169 4.752C38.169 5.416 38.077 6.016 37.893 6.552C37.709 7.088 37.445 7.548 37.101 7.932C36.765 8.316 36.357 8.608 35.877 8.808C35.397 9.008 34.857 9.108 34.257 9.108ZM34.257 8.124C34.833 8.124 35.325 7.992 35.733 7.728C36.141 7.464 36.453 7.08 36.669 6.576C36.893 6.072 37.005 5.468 37.005 4.764C37.005 3.7 36.765 2.876 36.285 2.292C35.813 1.708 35.137 1.416 34.257 1.416C33.681 1.416 33.185 1.548 32.769 1.812C32.361 2.068 32.049 2.448 31.833 2.952C31.617 3.448 31.509 4.052 31.509 4.764C31.509 5.82 31.749 6.644 32.229 7.236C32.709 7.828 33.385 8.124 34.257 8.124ZM40.4308 9.084C40.2708 9.084 40.1468 9.036 40.0588 8.94C39.9708 8.844 39.9268 8.716 39.9268 8.556V0.983999C39.9268 0.816 39.9708 0.688 40.0588 0.599999C40.1548 0.504 40.2828 0.456 40.4428 0.456C40.5868 0.456 40.6988 0.484 40.7788 0.539999C40.8668 0.596 40.9468 0.692 41.0188 0.827999L44.2348 6.864H43.8628L47.0788 0.827999C47.1508 0.692 47.2268 0.596 47.3068 0.539999C47.3868 0.484 47.4988 0.456 47.6428 0.456C47.8028 0.456 47.9268 0.504 48.0148 0.599999C48.1028 0.688 48.1468 0.816 48.1468 0.983999V8.556C48.1468 8.716 48.1028 8.844 48.0148 8.94C47.9348 9.036 47.8108 9.084 47.6428 9.084C47.4748 9.084 47.3468 9.036 47.2588 8.94C47.1788 8.844 47.1388 8.716 47.1388 8.556V2.088H47.4028L44.5228 7.476C44.4588 7.58 44.3908 7.66 44.3188 7.716C44.2548 7.764 44.1628 7.788 44.0428 7.788C43.9308 7.788 43.8348 7.76 43.7548 7.704C43.6828 7.648 43.6188 7.572 43.5628 7.476L40.6468 2.076H40.9348V8.556C40.9348 8.716 40.8908 8.844 40.8028 8.94C40.7228 9.036 40.5988 9.084 40.4308 9.084ZM50.8036 9C50.6116 9 50.4636 8.948 50.3596 8.844C50.2556 8.74 50.2036 8.592 50.2036 8.4V1.14C50.2036 0.948 50.2556 0.8 50.3596 0.696C50.4636 0.592 50.6116 0.539999 50.8036 0.539999H55.2196C55.3716 0.539999 55.4876 0.579999 55.5676 0.659999C55.6556 0.731999 55.6996 0.839999 55.6996 0.983999C55.6996 1.136 55.6556 1.252 55.5676 1.332C55.4876 1.412 55.3716 1.452 55.2196 1.452H51.2836V4.248H54.9676C55.1196 4.248 55.2356 4.288 55.3156 4.368C55.3956 4.448 55.4356 4.56 55.4356 4.704C55.4356 4.856 55.3956 4.972 55.3156 5.052C55.2356 5.124 55.1196 5.16 54.9676 5.16H51.2836V8.088H55.2196C55.3716 8.088 55.4876 8.128 55.5676 8.208C55.6556 8.28 55.6996 8.392 55.6996 8.544C55.6996 8.696 55.6556 8.812 55.5676 8.892C55.4876 8.964 55.3716 9 55.2196 9H50.8036Z" fill="white"/>
</svg>
